<svg width="29" height="29" viewBox="0 0 29 29" fill="none" xmlns="http://www.w3.org/2000/svg">
<path d="M15 7.30566C18.9375 7.30566 22.1875 10.5557 22.1875 14.4932C22.1875 18.4932 18.9375 21.6807 15 21.6807C11 21.6807 7.8125 18.4932 7.8125 14.4932C7.8125 10.5557 11 7.30566 15 7.30566ZM15 19.1807C17.5625 19.1807 19.625 17.1182 19.625 14.4932C19.625 11.9307 17.5625 9.86816 15 9.86816C12.375 9.86816 10.3125 11.9307 10.3125 14.4932C10.3125 17.1182 12.4375 19.1807 15 19.1807ZM24.125 7.05566C24.125 7.99316 23.375 8.74316 22.4375 8.74316C21.5 8.74316 20.75 7.99316 20.75 7.05566C20.75 6.11816 21.5 5.36816 22.4375 5.36816C23.375 5.36816 24.125 6.11816 24.125 7.05566ZM28.875 8.74316C29 11.0557 29 17.9932 28.875 20.3057C28.75 22.5557 28.25 24.4932 26.625 26.1807C25 27.8057 23 28.3057 20.75 28.4307C18.4375 28.5557 11.5 28.5557 9.1875 28.4307C6.9375 28.3057 5 27.8057 3.3125 26.1807C1.6875 24.4932 1.1875 22.5557 1.0625 20.3057C0.9375 17.9932 0.9375 11.0557 1.0625 8.74316C1.1875 6.49316 1.6875 4.49316 3.3125 2.86816C5 1.24316 6.9375 0.743164 9.1875 0.618164C11.5 0.493164 18.4375 0.493164 20.75 0.618164C23 0.743164 25 1.24316 26.625 2.86816C28.25 4.49316 28.75 6.49316 28.875 8.74316ZM25.875 22.7432C26.625 20.9307 26.4375 16.5557 26.4375 14.4932C26.4375 12.4932 26.625 8.11816 25.875 6.24316C25.375 5.05566 24.4375 4.05566 23.25 3.61816C21.375 2.86816 17 3.05566 15 3.05566C12.9375 3.05566 8.5625 2.86816 6.75 3.61816C5.5 4.11816 4.5625 5.05566 4.0625 6.24316C3.3125 8.11816 3.5 12.4932 3.5 14.4932C3.5 16.5557 3.3125 20.9307 4.0625 22.7432C4.5625 23.9932 5.5 24.9307 6.75 25.4307C8.5625 26.1807 12.9375 25.9932 15 25.9932C17 25.9932 21.375 26.1807 23.25 25.4307C24.4375 24.9307 25.4375 23.9932 25.875 22.7432Z" fill="#545454"/>
</svg>
