<svg width="28" height="29" viewBox="0 0 28 29" fill="none" xmlns="http://www.w3.org/2000/svg">
<path d="M26 0.493164C27.0625 0.493164 28 1.43066 28 2.55566V26.4932C28 27.6182 27.0625 28.4932 26 28.4932H1.9375C0.875 28.4932 0 27.6182 0 26.4932V2.55566C0 1.43066 0.875 0.493164 1.9375 0.493164H26ZM8.4375 24.4932V11.1807H4.3125V24.4932H8.4375ZM6.375 9.30566C7.6875 9.30566 8.75 8.24316 8.75 6.93066C8.75 5.61816 7.6875 4.49316 6.375 4.49316C5 4.49316 3.9375 5.61816 3.9375 6.93066C3.9375 8.24316 5 9.30566 6.375 9.30566ZM24 24.4932V17.1807C24 13.6182 23.1875 10.8057 19 10.8057C17 10.8057 15.625 11.9307 15.0625 12.9932H15V11.1807H11.0625V24.4932H15.1875V17.9307C15.1875 16.1807 15.5 14.4932 17.6875 14.4932C19.8125 14.4932 19.8125 16.4932 19.8125 17.9932V24.4932H24Z" fill="#545454"/>
</svg>
